<svg id="Layer_1" data-name="Layer 1" xmlns="http://www.w3.org/2000/svg" viewBox="0 0 379.65 65.35"><defs><style>.cls-1{fill:#006897;}.cls-2{fill:#0baabf;}</style></defs><path class="cls-1" d="M191.6,405.79h14a3.21,3.21,0,0,1,3.29,3.29,3,3,0,0,1-.94,2.27,3.24,3.24,0,0,1-2.35.91h-14a3.21,3.21,0,0,1-3.3-3.3,3,3,0,0,1,.94-2.26A3.24,3.24,0,0,1,191.6,405.79Zm6.3-7.37a3.31,3.31,0,0,1,2.5,1,3.61,3.61,0,0,1,1,2.57v26.2a2.54,2.54,0,0,0,.33,1.36,1.88,1.88,0,0,0,.88.77,3.22,3.22,0,0,0,1.21.23,3.12,3.12,0,0,0,1.3-.27,3.32,3.32,0,0,1,1.35-.26,2,2,0,0,1,1.5.77,3.06,3.06,0,0,1,.68,2.11,3.14,3.14,0,0,1-1.8,2.72A7.52,7.52,0,0,1,203,436.7a21.28,21.28,0,0,1-2.73-.2,7.29,7.29,0,0,1-2.83-1,6.07,6.07,0,0,1-2.21-2.44,9.64,9.64,0,0,1-.88-4.53V402a3.52,3.52,0,0,1,3.59-3.6Z" transform="translate(-105.76 -393.12)"/><path class="cls-1" d="M232.65,404.61c2.83,0,5,.61,6.44,1.82a9.25,9.25,0,0,1,3,4.86A25.67,25.67,0,0,1,243,418v15.08a3.51,3.51,0,0,1-1,2.56,3.62,3.62,0,0,1-5.06,0,3.51,3.51,0,0,1-1-2.56V418a11.91,11.91,0,0,0-.47-3.5,4.75,4.75,0,0,0-1.71-2.5,5.69,5.69,0,0,0-3.53-.94,7.37,7.37,0,0,0-3.83.94,6.15,6.15,0,0,0-2.38,2.5,7.61,7.61,0,0,0-.8,3.5v15.08a3.54,3.54,0,0,1-1,2.56,3.39,3.39,0,0,1-2.54,1,3.35,3.35,0,0,1-2.53-1,3.51,3.51,0,0,1-1-2.56V396.72a3.55,3.55,0,0,1,1-2.57,3.39,3.39,0,0,1,2.53-1,3.43,3.43,0,0,1,2.54,1,3.58,3.58,0,0,1,1,2.57v14.6l-.88-.18a13.51,13.51,0,0,1,1.47-2.14,12.87,12.87,0,0,1,2.3-2.15,11.92,11.92,0,0,1,3-1.62A9.92,9.92,0,0,1,232.65,404.61Z" transform="translate(-105.76 -393.12)"/><path class="cls-1" d="M265.92,437.29a17.28,17.28,0,0,1-8.69-2.09,14.48,14.48,0,0,1-5.65-5.68,16.53,16.53,0,0,1-2-8.13,17.82,17.82,0,0,1,2.15-9,15.2,15.2,0,0,1,5.62-5.74,14.48,14.48,0,0,1,7.37-2,13.42,13.42,0,0,1,5.67,1.23,15.76,15.76,0,0,1,4.75,3.39,16.55,16.55,0,0,1,3.27,5,15.2,15.2,0,0,1,1.2,6,3,3,0,0,1-1.11,2.3,3.77,3.77,0,0,1-2.48.88h-22.5l-1.76-5.88H273.4l-1.29,1.17v-1.59A5.41,5.41,0,0,0,270.9,414a8,8,0,0,0-2.71-2.15,7.71,7.71,0,0,0-3.44-.79,10.92,10.92,0,0,0-3.3.47,6.15,6.15,0,0,0-2.65,1.59,7.57,7.57,0,0,0-1.77,3,15,15,0,0,0-.65,4.77,10.33,10.33,0,0,0,1.32,5.39,9.07,9.07,0,0,0,7.87,4.51,13.4,13.4,0,0,0,3.47-.36,7.53,7.53,0,0,0,2.09-.85c.53-.34,1-.62,1.45-.85a4.39,4.39,0,0,1,2-.54,3,3,0,0,1,3,2.95,3.66,3.66,0,0,1-1.65,2.88,13.78,13.78,0,0,1-4.29,2.27A17.14,17.14,0,0,1,265.92,437.29Z" transform="translate(-105.76 -393.12)"/><path class="cls-2" d="M290.48,395.48h19.73a3.64,3.64,0,0,1,2.56,1,3.27,3.27,0,0,1,1,2.5,3,3,0,0,1-1,2.39,3.73,3.73,0,0,1-2.56.91H293.72l.52-1v11.48l-.47-.47h13.78a3.61,3.61,0,0,1,2.57,1,3.26,3.26,0,0,1,1,2.5,3,3,0,0,1-1,2.38,3.75,3.75,0,0,1-2.57.92H294l.29-.47v11.89l-.47-.53h16.44a3.52,3.52,0,0,1,2.56,1,3.28,3.28,0,0,1,1,2.39,3.11,3.11,0,0,1-1,2.41,3.66,3.66,0,0,1-2.56.94H290.48a3.52,3.52,0,0,1-3.6-3.59v-34a3.52,3.52,0,0,1,3.6-3.59Z" transform="translate(-105.76 -393.12)"/><path class="cls-2" d="M321.4,405.2a3.57,3.57,0,0,1,2.88,1.47L344,431.11a3.28,3.28,0,0,1,.76,2.11,3.38,3.38,0,0,1-1.12,2.54,3.54,3.54,0,0,1-2.47,1.06,3.5,3.5,0,0,1-2.88-1.54l-19.68-24.43a3.43,3.43,0,0,1,.32-4.65A3.61,3.61,0,0,1,321.4,405.2Zm.06,31.56a3.76,3.76,0,0,1-2.33-.91,2.75,2.75,0,0,1-1.15-2.21,3.45,3.45,0,0,1,.88-2.23l9-11,3.53,5.89-7.13,9A3.38,3.38,0,0,1,321.46,436.76Zm19.61-31.56a3.21,3.21,0,0,1,2.38,1,3,3,0,0,1,1,2.21,4,4,0,0,1-.18,1.17,2.74,2.74,0,0,1-.65,1.12l-8.89,10.84L331,416.39l7.25-9.6A3.43,3.43,0,0,1,341.07,405.2Z" transform="translate(-105.76 -393.12)"/><path class="cls-2" d="M375.69,404.61a3.41,3.41,0,0,1,2.54,1,3.5,3.5,0,0,1,1,2.59v24.91a3.51,3.51,0,0,1-1,2.56,3.62,3.62,0,0,1-5.06,0,3.47,3.47,0,0,1-1-2.56v-2.88l1.3.52a3.3,3.3,0,0,1-.82,1.86,11.3,11.3,0,0,1-2.24,2.15,14,14,0,0,1-3.33,1.8,11.67,11.67,0,0,1-4.15.73,13.38,13.38,0,0,1-7.36-2.09,14.71,14.71,0,0,1-5.21-5.77,19.69,19.69,0,0,1,0-17,14.86,14.86,0,0,1,5.14-5.77,13,13,0,0,1,7.19-2.09,13.93,13.93,0,0,1,4.66.76,13.59,13.59,0,0,1,3.67,1.95,11,11,0,0,1,2.42,2.38,3.85,3.85,0,0,1,.86,2l-2.13.77v-4.3a3.47,3.47,0,0,1,1-2.56A3.35,3.35,0,0,1,375.69,404.61ZM363.8,430.82a8,8,0,0,0,4.53-1.3,8.66,8.66,0,0,0,3-3.53,12.17,12.17,0,0,0,0-10.07,8.69,8.69,0,0,0-3-3.54,8,8,0,0,0-4.53-1.29,7.87,7.87,0,0,0-4.47,1.29,8.77,8.77,0,0,0-3,3.54,12.17,12.17,0,0,0,0,10.07,8.74,8.74,0,0,0,3,3.53A7.88,7.88,0,0,0,363.8,430.82Z" transform="translate(-105.76 -393.12)"/><path class="cls-2" d="M404.2,404.61q4.71,0,6.95,2.26a11.16,11.16,0,0,1,2.94,5.86l-1-.52.47-.95a13.55,13.55,0,0,1,2.18-2.91,13.18,13.18,0,0,1,3.56-2.65,10,10,0,0,1,4.69-1.09c2.83,0,5,.61,6.45,1.82a9.29,9.29,0,0,1,3,4.86,25.24,25.24,0,0,1,.83,6.74v15.08a3.51,3.51,0,0,1-1,2.56,3.37,3.37,0,0,1-2.53,1,3.41,3.41,0,0,1-2.54-1,3.54,3.54,0,0,1-1-2.56V418a12.24,12.24,0,0,0-.48-3.5,4.79,4.79,0,0,0-1.7-2.5,5.73,5.73,0,0,0-3.53-.94,7.39,7.39,0,0,0-3.84.94,6.15,6.15,0,0,0-2.38,2.5,7.6,7.6,0,0,0-.79,3.5v15.08a3.51,3.51,0,0,1-1,2.56,3.62,3.62,0,0,1-5.06,0,3.55,3.55,0,0,1-1-2.56V418a12.26,12.26,0,0,0-.46-3.5,4.87,4.87,0,0,0-1.71-2.5,5.75,5.75,0,0,0-3.53-.94,7.32,7.32,0,0,0-3.83.94,6.11,6.11,0,0,0-2.39,2.5,7.6,7.6,0,0,0-.79,3.5v15.08a3.55,3.55,0,0,1-1,2.56,3.39,3.39,0,0,1-2.54,1,3.35,3.35,0,0,1-2.53-1,3.51,3.51,0,0,1-1-2.56V408.79a3.51,3.51,0,0,1,1-2.56,3.35,3.35,0,0,1,2.53-1,3.39,3.39,0,0,1,2.54,1,3.55,3.55,0,0,1,1,2.56v2.53l-.89-.18a13.63,13.63,0,0,1,1.48-2.14,12.47,12.47,0,0,1,2.29-2.15,12.09,12.09,0,0,1,3-1.62A10,10,0,0,1,404.2,404.61Z" transform="translate(-105.76 -393.12)"/><path class="cls-2" d="M450.37,433.11a3.52,3.52,0,0,1-3.59,3.59,3.3,3.3,0,0,1-2.47-1,3.51,3.51,0,0,1-1-2.56V396.72a3.54,3.54,0,0,1,3.6-3.6,3.29,3.29,0,0,1,2.5,1,3.61,3.61,0,0,1,1,2.57Z" transform="translate(-105.76 -393.12)"/><path class="cls-2" d="M481.88,405.2a3.37,3.37,0,0,1,2.53,1,3.51,3.51,0,0,1,1,2.56v25a16.08,16.08,0,0,1-2,8.64,11.66,11.66,0,0,1-5.45,4.62,19.86,19.86,0,0,1-7.65,1.41,28.64,28.64,0,0,1-4-.3,12.94,12.94,0,0,1-3.47-.88,4.94,4.94,0,0,1-2.45-1.91,2.87,2.87,0,0,1-.26-2.44,3.69,3.69,0,0,1,1.7-2.33,2.94,2.94,0,0,1,2.48-.15c.63.2,1.45.5,2.47.91a9.25,9.25,0,0,0,3.54.62,12.18,12.18,0,0,0,4.5-.73,5.21,5.21,0,0,0,2.71-2.48,10.27,10.27,0,0,0,.91-4.74v-3.94l1.24,1.41a10.26,10.26,0,0,1-2.5,3.21,10.13,10.13,0,0,1-3.57,1.91,15.72,15.72,0,0,1-4.71.65,10.11,10.11,0,0,1-5.44-1.44,9.76,9.76,0,0,1-3.63-4A12.86,12.86,0,0,1,458.5,426v-17.2a3.51,3.51,0,0,1,1-2.56,3.35,3.35,0,0,1,2.53-1,3.41,3.41,0,0,1,2.54,1,3.54,3.54,0,0,1,1,2.56v15.07c0,2.56.57,4.35,1.69,5.39a6.6,6.6,0,0,0,4.68,1.57,7,7,0,0,0,3.47-.8,5.32,5.32,0,0,0,2.18-2.36,8.55,8.55,0,0,0,.77-3.8V408.79a3.54,3.54,0,0,1,1-2.56A3.39,3.39,0,0,1,481.88,405.2Z" transform="translate(-105.76 -393.12)"/><path class="cls-2" d="M175.52,404.83l-31.27-9.6a8.83,8.83,0,0,0-5.24,0l-31.27,9.6a2.64,2.64,0,0,0,0,5.11l5.45,1.68a8.82,8.82,0,0,0-2,5.25,3.47,3.47,0,0,0-.29,5.95L108,435.69a1.79,1.79,0,0,0,1.75,2.18h6.29a1.79,1.79,0,0,0,1.75-2.18L115,422.82a3.46,3.46,0,0,0-.2-5.89,5.26,5.26,0,0,1,2.32-4.12L139,419.55a9,9,0,0,0,5.24,0l31.27-9.61a2.64,2.64,0,0,0,0-5.11Z" transform="translate(-105.76 -393.12)"/><path class="cls-1" d="M145.3,423a12.56,12.56,0,0,1-7.35,0l-16.25-5-1.59,12.72c0,4,9.63,7.17,21.52,7.17s21.52-3.21,21.52-7.17L161.56,418Z" transform="translate(-105.76 -393.12)"/></svg>